<svg width="132" height="28" viewBox="0 0 132 28" fill="none" xmlns="http://www.w3.org/2000/svg">
<path d="M13.1675 13.1922C13.088 12.3901 12.7466 11.767 12.1434 11.3229C11.5402 10.8788 10.7215 10.6567 9.68743 10.6567C8.98478 10.6567 8.3915 10.7561 7.9076 10.955C7.4237 11.1472 7.05249 11.4157 6.79397 11.7604C6.54207 12.1051 6.41613 12.4962 6.41613 12.9337C6.40287 13.2983 6.4791 13.6165 6.64482 13.8882C6.81717 14.16 7.05249 14.3953 7.35078 14.5942C7.64908 14.7864 7.99378 14.9555 8.38488 15.1013C8.77597 15.2405 9.19359 15.3598 9.63772 15.4593L11.4673 15.8968C12.3555 16.0956 13.1709 16.3608 13.9133 16.6922C14.6557 17.0236 15.2987 17.4313 15.8423 17.9152C16.3858 18.3991 16.8068 18.9692 17.105 19.6254C17.41 20.2817 17.5657 21.0341 17.5724 21.8825C17.5657 23.1288 17.2476 24.2093 16.6178 25.124C15.9947 26.0322 15.0932 26.7381 13.9133 27.2419C12.74 27.7391 11.3247 27.9877 9.66755 27.9877C8.02361 27.9877 6.59179 27.7358 5.37209 27.232C4.15902 26.7282 3.21111 25.9825 2.52834 24.9948C1.8522 24.0004 1.49756 22.7708 1.46442 21.3058H5.63061C5.67702 21.9886 5.87256 22.5587 6.21726 23.0161C6.56859 23.4668 7.03592 23.8082 7.61925 24.0402C8.20921 24.2656 8.87541 24.3783 9.61783 24.3783C10.347 24.3783 10.98 24.2722 11.517 24.0601C12.0605 23.848 12.4815 23.553 12.7798 23.1752C13.0781 22.7973 13.2272 22.3631 13.2272 21.8726C13.2272 21.4152 13.0913 21.0307 12.8195 20.7192C12.5544 20.4076 12.1633 20.1425 11.6462 19.9237C11.1358 19.705 10.5094 19.5061 9.76698 19.3272L7.54965 18.7703C5.83279 18.3527 4.4772 17.6998 3.48289 16.8115C2.48857 15.9233 1.99472 14.7268 2.00135 13.222C1.99472 11.9891 2.32285 10.9119 2.98573 9.9905C3.65524 9.0691 4.57332 8.34988 5.73999 7.83283C6.90666 7.31579 8.23241 7.05726 9.71726 7.05726C11.2286 7.05726 12.5478 7.31579 13.6746 7.83283C14.8082 8.34988 15.6898 9.0691 16.3195 9.9905C16.9493 10.9119 17.2741 11.9791 17.294 13.1922H13.1675ZM18.9888 27.6993V12.4266H23.2246V27.6993H18.9888ZM21.1166 10.4578C20.4869 10.4578 19.9466 10.249 19.4959 9.83141C19.0518 9.40717 18.8297 8.90007 18.8297 8.3101C18.8297 7.72677 19.0518 7.2263 19.4959 6.80869C19.9466 6.38444 20.4869 6.17232 21.1166 6.17232C21.7464 6.17232 22.2833 6.38444 22.7274 6.80869C23.1782 7.2263 23.4036 7.72677 23.4036 8.3101C23.4036 8.90007 23.1782 9.40717 22.7274 9.83141C22.2833 10.249 21.7464 10.4578 21.1166 10.4578ZM29.4535 18.8698V27.6993H25.2177V12.4266H29.2546V15.1212H29.4336C29.7717 14.2329 30.3384 13.5303 31.1339 13.0132C31.9293 12.4896 32.8938 12.2277 34.0273 12.2277C35.088 12.2277 36.0127 12.4597 36.8015 12.9237C37.5903 13.3878 38.2035 14.0506 38.641 14.9124C39.0785 15.7675 39.2972 16.7883 39.2972 17.9749V27.6993H35.0614V18.7306C35.0681 17.7959 34.8294 17.0667 34.3455 16.5431C33.8616 16.0128 33.1954 15.7476 32.347 15.7476C31.7769 15.7476 31.2731 15.8702 30.8356 16.1155C30.4047 16.3608 30.0666 16.7187 29.8214 17.1894C29.5827 17.6534 29.4601 18.2135 29.4535 18.8698ZM48.1959 27.9976C46.6249 27.9976 45.2726 27.6794 44.1391 27.0431C43.0122 26.4001 42.1438 25.4919 41.534 24.3186C40.9241 23.1387 40.6192 21.7433 40.6192 20.1325C40.6192 18.5615 40.9241 17.1827 41.534 15.9962C42.1438 14.8096 43.0022 13.8849 44.1092 13.222C45.2229 12.5592 46.5287 12.2277 48.0268 12.2277C49.0344 12.2277 49.9724 12.3901 50.8408 12.7149C51.7158 13.0331 52.4781 13.5137 53.1277 14.1567C53.784 14.7997 54.2944 15.6084 54.659 16.5828C55.0235 17.5506 55.2058 18.6842 55.2058 19.9834V21.1468H42.3095V18.5218H51.2186C51.2186 17.9119 51.086 17.3717 50.8209 16.901C50.5557 16.4304 50.1878 16.0625 49.7172 15.7973C49.2532 15.5255 48.7129 15.3897 48.0965 15.3897C47.4535 15.3897 46.8834 15.5388 46.3862 15.8371C45.8957 16.1288 45.5112 16.5232 45.2328 17.0203C44.9544 17.5109 44.8119 18.0577 44.8053 18.661V21.1567C44.8053 21.9124 44.9445 22.5653 45.2229 23.1155C45.5079 23.6657 45.909 24.0899 46.426 24.3882C46.943 24.6865 47.5562 24.8357 48.2655 24.8357C48.7361 24.8357 49.167 24.7694 49.5581 24.6368C49.9492 24.5042 50.284 24.3054 50.5624 24.0402C50.8408 23.7751 51.0529 23.4503 51.1987 23.0658L55.1163 23.3243C54.9175 24.2656 54.5098 25.0876 53.8933 25.7902C53.2835 26.4862 52.4947 27.0298 51.5268 27.4209C50.5657 27.8054 49.4554 27.9976 48.1959 27.9976ZM69.2774 16.7817L65.3996 17.0203C65.3333 16.6889 65.1908 16.3906 64.972 16.1254C64.7533 15.8537 64.4649 15.6382 64.107 15.4791C63.7556 15.3134 63.3347 15.2306 62.8442 15.2306C62.1879 15.2306 61.6344 15.3698 61.1837 15.6482C60.7329 15.92 60.5075 16.2845 60.5075 16.7419C60.5075 17.1065 60.6534 17.4147 60.945 17.6666C61.2367 17.9185 61.7372 18.1207 62.4465 18.2732L65.2107 18.83C66.6955 19.1349 67.8025 19.6254 68.5317 20.3016C69.2608 20.9777 69.6254 21.866 69.6254 22.9664C69.6254 23.9673 69.3305 24.8456 68.7405 25.6013C68.1572 26.357 67.3551 26.9469 66.3342 27.3712C65.32 27.7888 64.1501 27.9976 62.8243 27.9976C60.8025 27.9976 59.1917 27.5767 57.9919 26.7348C56.7987 25.8863 56.0994 24.7329 55.8939 23.2746L60.0601 23.0558C60.186 23.6723 60.491 24.143 60.9749 24.4678C61.4588 24.786 62.0786 24.945 62.8342 24.945C63.5767 24.945 64.1733 24.8025 64.624 24.5175C65.0814 24.2258 65.3134 23.8513 65.32 23.3939C65.3134 23.0094 65.151 22.6946 64.8328 22.4493C64.5146 22.1974 64.0241 22.0052 63.3612 21.8726L60.7163 21.3456C59.2249 21.0473 58.1145 20.5303 57.3854 19.7945C56.6628 19.0587 56.3016 18.1207 56.3016 16.9806C56.3016 15.9995 56.5667 15.1543 57.097 14.445C57.634 13.7358 58.3863 13.1889 59.3541 12.8044C60.3286 12.42 61.4687 12.2277 62.7746 12.2277C64.7036 12.2277 66.2215 12.6354 67.3286 13.4507C68.4422 14.2661 69.0918 15.3764 69.2774 16.7817ZM79.0163 12.4266V15.6084H69.8188V12.4266H79.0163ZM71.9069 8.76749H76.1427V23.0061C76.1427 23.3972 76.2023 23.7022 76.3217 23.9209C76.441 24.133 76.6067 24.2822 76.8188 24.3683C77.0376 24.4545 77.2895 24.4976 77.5745 24.4976C77.7734 24.4976 77.9722 24.481 78.1711 24.4479C78.37 24.4081 78.5224 24.3783 78.6285 24.3584L79.2947 27.5104C79.0826 27.5767 78.7843 27.6529 78.3998 27.7391C78.0153 27.8319 77.548 27.8882 76.9978 27.9081C75.977 27.9479 75.0821 27.812 74.3131 27.5004C73.5508 27.1889 72.9576 26.705 72.5333 26.0487C72.1091 25.3925 71.9003 24.5639 71.9069 23.5629V8.76749ZM87.1717 27.9976C85.6006 27.9976 84.2484 27.6794 83.1148 27.0431C81.988 26.4001 81.1196 25.4919 80.5097 24.3186C79.8999 23.1387 79.595 21.7433 79.595 20.1325C79.595 18.5615 79.8999 17.1827 80.5097 15.9962C81.1196 14.8096 81.978 13.8849 83.085 13.222C84.1987 12.5592 85.5045 12.2277 87.0026 12.2277C88.0102 12.2277 88.9482 12.3901 89.8165 12.7149C90.6915 13.0331 91.4539 13.5137 92.1035 14.1567C92.7597 14.7997 93.2701 15.6084 93.6347 16.5828C93.9993 17.5506 94.1816 18.6842 94.1816 19.9834V21.1468H81.2853V18.5218H90.1944C90.1944 17.9119 90.0618 17.3717 89.7967 16.901C89.5315 16.4304 89.1636 16.0625 88.693 15.7973C88.229 15.5255 87.6887 15.3897 87.0722 15.3897C86.4292 15.3897 85.8592 15.5388 85.362 15.8371C84.8715 16.1288 84.487 16.5232 84.2086 17.0203C83.9302 17.5109 83.7877 18.0577 83.781 18.661V21.1567C83.781 21.9124 83.9202 22.5653 84.1987 23.1155C84.4837 23.6657 84.8847 24.0899 85.4018 24.3882C85.9188 24.6865 86.532 24.8357 87.2413 24.8357C87.7119 24.8357 88.1428 24.7694 88.5339 24.6368C88.925 24.5042 89.2597 24.3054 89.5381 24.0402C89.8165 23.7751 90.0287 23.4503 90.1745 23.0658L94.0921 23.3243C93.8933 24.2656 93.4856 25.0876 92.8691 25.7902C92.2593 26.4862 91.4704 27.0298 90.5026 27.4209C89.5415 27.8054 88.4311 27.9976 87.1717 27.9976ZM108.253 16.7817L104.375 17.0203C104.309 16.6889 104.167 16.3906 103.948 16.1254C103.729 15.8537 103.441 15.6382 103.083 15.4791C102.731 15.3134 102.31 15.2306 101.82 15.2306C101.164 15.2306 100.61 15.3698 100.159 15.6482C99.7087 15.92 99.4833 16.2845 99.4833 16.7419C99.4833 17.1065 99.6291 17.4147 99.9208 17.6666C100.212 17.9185 100.713 18.1207 101.422 18.2732L104.186 18.83C105.671 19.1349 106.778 19.6254 107.507 20.3016C108.237 20.9777 108.601 21.866 108.601 22.9664C108.601 23.9673 108.306 24.8456 107.716 25.6013C107.133 26.357 106.331 26.9469 105.31 27.3712C104.296 27.7888 103.126 27.9976 101.8 27.9976C99.7783 27.9976 98.1675 27.5767 96.9677 26.7348C95.7745 25.8863 95.0752 24.7329 94.8697 23.2746L99.0359 23.0558C99.1618 23.6723 99.4667 24.143 99.9506 24.4678C100.435 24.786 101.054 24.945 101.81 24.945C102.552 24.945 103.149 24.8025 103.6 24.5175C104.057 24.2258 104.289 23.8513 104.296 23.3939C104.289 23.0094 104.127 22.6946 103.809 22.4493C103.49 22.1974 103 22.0052 102.337 21.8726L99.6921 21.3456C98.2006 21.0473 97.0903 20.5303 96.3612 19.7945C95.6386 19.0587 95.2773 18.1207 95.2773 16.9806C95.2773 15.9995 95.5425 15.1543 96.0728 14.445C96.6097 13.7358 97.3621 13.1889 98.3299 12.8044C99.3043 12.42 100.444 12.2277 101.75 12.2277C103.679 12.2277 105.197 12.6354 106.304 13.4507C107.418 14.2661 108.068 15.3764 108.253 16.7817ZM109.868 27.6993V12.4266H114.104V27.6993H109.868ZM111.996 10.4578C111.367 10.4578 110.826 10.249 110.376 9.83141C109.931 9.40717 109.709 8.90007 109.709 8.3101C109.709 7.72677 109.931 7.2263 110.376 6.80869C110.826 6.38444 111.367 6.17232 111.996 6.17232C112.626 6.17232 113.163 6.38444 113.607 6.80869C114.058 7.2263 114.283 7.72677 114.283 8.3101C114.283 8.90007 114.058 9.40717 113.607 9.83141C113.163 10.249 112.626 10.4578 111.996 10.4578ZM120.452 27.9877C119.478 27.9877 118.61 27.8186 117.847 27.4806C117.085 27.1359 116.482 26.6288 116.038 25.9593C115.6 25.2831 115.381 24.4413 115.381 23.4337C115.381 22.5852 115.537 21.8726 115.849 21.2959C116.16 20.7192 116.585 20.2552 117.122 19.9039C117.658 19.5525 118.268 19.2874 118.951 19.1084C119.64 18.9294 120.363 18.8035 121.119 18.7306C122.007 18.6378 122.723 18.5516 123.266 18.472C123.81 18.3859 124.204 18.2599 124.45 18.0942C124.695 17.9285 124.818 17.6832 124.818 17.3584V17.2987C124.818 16.669 124.619 16.1818 124.221 15.8371C123.83 15.4924 123.273 15.32 122.551 15.32C121.788 15.32 121.182 15.4891 120.731 15.8272C120.28 16.1586 119.982 16.5762 119.836 17.08L115.918 16.7618C116.117 15.8338 116.508 15.0317 117.092 14.3556C117.675 13.6728 118.427 13.1491 119.349 12.7845C120.277 12.4133 121.351 12.2277 122.57 12.2277C123.419 12.2277 124.231 12.3272 125.006 12.526C125.789 12.7249 126.481 13.0331 127.085 13.4507C127.694 13.8683 128.175 14.4053 128.526 15.0615C128.878 15.7111 129.053 16.49 129.053 17.3982V27.6993H125.036V25.5814H124.917C124.672 26.0587 124.344 26.4796 123.933 26.8442C123.522 27.2022 123.028 27.4839 122.451 27.6894C121.874 27.8882 121.208 27.9877 120.452 27.9877ZM121.666 25.0644C122.289 25.0644 122.839 24.9417 123.316 24.6965C123.793 24.4446 124.168 24.1065 124.44 23.6823C124.711 23.258 124.847 22.7774 124.847 22.2405V20.6198C124.715 20.7059 124.533 20.7855 124.301 20.8584C124.075 20.9247 123.82 20.9877 123.535 21.0473C123.25 21.1004 122.965 21.1501 122.68 21.1965C122.395 21.2362 122.136 21.2727 121.904 21.3058C121.407 21.3788 120.973 21.4948 120.602 21.6539C120.23 21.8129 119.942 22.0284 119.737 22.3002C119.531 22.5653 119.428 22.8968 119.428 23.2945C119.428 23.8712 119.637 24.312 120.055 24.6169C120.479 24.9152 121.016 25.0644 121.666 25.0644Z" fill="white"/>
</svg>
