<svg width="129" height="23" viewBox="0 0 129 23" fill="none" xmlns="http://www.w3.org/2000/svg">
<path d="M12.1675 7.4929C12.088 6.69081 11.7466 6.06771 11.1434 5.62358C10.5402 5.17945 9.72152 4.95739 8.68743 4.95739C7.98478 4.95739 7.3915 5.05682 6.9076 5.25568C6.4237 5.44792 6.05249 5.71638 5.79397 6.06108C5.54207 6.40578 5.41613 6.79688 5.41613 7.23438C5.40287 7.59896 5.4791 7.91714 5.64482 8.18892C5.81717 8.4607 6.05249 8.69602 6.35078 8.89489C6.64908 9.08712 6.99378 9.25615 7.38488 9.40199C7.77597 9.54119 8.19359 9.66051 8.63772 9.75994L10.4673 10.1974C11.3555 10.3963 12.1709 10.6615 12.9133 10.9929C13.6557 11.3243 14.2987 11.732 14.8423 12.2159C15.3858 12.6998 15.8068 13.2699 16.105 13.9261C16.41 14.5824 16.5657 15.3348 16.5724 16.1832C16.5657 17.4295 16.2476 18.5099 15.6178 19.4247C14.9947 20.3329 14.0932 21.0388 12.9133 21.5426C11.74 22.0398 10.3247 22.2884 8.66755 22.2884C7.02361 22.2884 5.59179 22.0365 4.37209 21.5327C3.15902 21.0289 2.21111 20.2831 1.52834 19.2955C0.852205 18.3011 0.497565 17.0715 0.464421 15.6065H4.63061C4.67702 16.2893 4.87256 16.8594 5.21726 17.3168C5.56859 17.7675 6.03592 18.1089 6.61925 18.3409C7.20921 18.5663 7.87541 18.679 8.61783 18.679C9.347 18.679 9.98005 18.5729 10.517 18.3608C11.0605 18.1487 11.4815 17.8537 11.7798 17.4759C12.0781 17.098 12.2272 16.6638 12.2272 16.1733C12.2272 15.7159 12.0913 15.3314 11.8195 15.0199C11.5544 14.7083 11.1633 14.4432 10.6462 14.2244C10.1358 14.0057 9.5094 13.8068 8.76698 13.6278L6.54965 13.071C4.83279 12.6534 3.4772 12.0005 2.48289 11.1122C1.48857 10.224 0.994724 9.02746 1.00135 7.52273C0.994724 6.28977 1.32285 5.21259 1.98573 4.29119C2.65524 3.36979 3.57332 2.65057 4.73999 2.13352C5.90666 1.61648 7.23241 1.35795 8.71726 1.35795C10.2286 1.35795 11.5478 1.61648 12.6746 2.13352C13.8082 2.65057 14.6898 3.36979 15.3195 4.29119C15.9493 5.21259 16.2741 6.27983 16.294 7.4929H12.1675ZM17.9888 22V6.72727H22.2246V22H17.9888ZM20.1166 4.75852C19.4869 4.75852 18.9466 4.54972 18.4959 4.1321C18.0518 3.70786 17.8297 3.20076 17.8297 2.61079C17.8297 2.02746 18.0518 1.52699 18.4959 1.10938C18.9466 0.685132 19.4869 0.47301 20.1166 0.47301C20.7464 0.47301 21.2833 0.685132 21.7274 1.10938C22.1782 1.52699 22.4036 2.02746 22.4036 2.61079C22.4036 3.20076 22.1782 3.70786 21.7274 4.1321C21.2833 4.54972 20.7464 4.75852 20.1166 4.75852ZM28.4535 13.1705V22H24.2177V6.72727H28.2546V9.42188H28.4336C28.7717 8.53362 29.3384 7.83097 30.1339 7.31392C30.9293 6.79025 31.8938 6.52841 33.0273 6.52841C34.088 6.52841 35.0127 6.76042 35.8015 7.22443C36.5903 7.68845 37.2035 8.35133 37.641 9.21307C38.0785 10.0682 38.2972 11.089 38.2972 12.2756V22H34.0614V13.0312C34.0681 12.0966 33.8294 11.3674 33.3455 10.8438C32.8616 10.3134 32.1954 10.0483 31.347 10.0483C30.7769 10.0483 30.2731 10.1709 29.8356 10.4162C29.4047 10.6615 29.0666 11.0194 28.8214 11.4901C28.5827 11.9541 28.4601 12.5142 28.4535 13.1705ZM47.1959 22.2983C45.6249 22.2983 44.2726 21.9801 43.1391 21.3438C42.0122 20.7008 41.1438 19.7926 40.534 18.6193C39.9241 17.4394 39.6192 16.044 39.6192 14.4332C39.6192 12.8622 39.9241 11.4834 40.534 10.2969C41.1438 9.11032 42.0022 8.18561 43.1092 7.52273C44.2229 6.85985 45.5287 6.52841 47.0268 6.52841C48.0344 6.52841 48.9724 6.69081 49.8408 7.01562C50.7158 7.33381 51.4781 7.81439 52.1277 8.45739C52.784 9.10038 53.2944 9.90909 53.659 10.8835C54.0235 11.8513 54.2058 12.9848 54.2058 14.2841V15.4474H41.3095V12.8224H50.2186C50.2186 12.2126 50.086 11.6723 49.8209 11.2017C49.5557 10.7311 49.1878 10.3632 48.7172 10.098C48.2532 9.82623 47.7129 9.69034 47.0965 9.69034C46.4535 9.69034 45.8834 9.83949 45.3862 10.1378C44.8957 10.4295 44.5112 10.8239 44.2328 11.321C43.9544 11.8116 43.8119 12.3584 43.8053 12.9616V15.4574C43.8053 16.2131 43.9445 16.866 44.2229 17.4162C44.5079 17.9664 44.909 18.3906 45.426 18.6889C45.943 18.9872 46.5562 19.1364 47.2655 19.1364C47.7361 19.1364 48.167 19.0701 48.5581 18.9375C48.9492 18.8049 49.284 18.6061 49.5624 18.3409C49.8408 18.0758 50.0529 17.7509 50.1987 17.3665L54.1163 17.625C53.9175 18.5663 53.5098 19.3883 52.8933 20.0909C52.2835 20.7869 51.4947 21.3305 50.5268 21.7216C49.5657 22.1061 48.4554 22.2983 47.1959 22.2983ZM68.2774 11.0824L64.3996 11.321C64.3333 10.9896 64.1908 10.6913 63.972 10.4261C63.7533 10.1544 63.4649 9.93892 63.107 9.77983C62.7556 9.61411 62.3347 9.53125 61.8442 9.53125C61.1879 9.53125 60.6344 9.67045 60.1837 9.94886C59.7329 10.2206 59.5075 10.5852 59.5075 11.0426C59.5075 11.4072 59.6534 11.7154 59.945 11.9673C60.2367 12.2192 60.7372 12.4214 61.4465 12.5739L64.2107 13.1307C65.6955 13.4356 66.8025 13.9261 67.5317 14.6023C68.2608 15.2784 68.6254 16.1667 68.6254 17.267C68.6254 18.268 68.3305 19.1463 67.7405 19.902C67.1572 20.6577 66.3551 21.2476 65.3342 21.6719C64.32 22.0895 63.1501 22.2983 61.8243 22.2983C59.8025 22.2983 58.1917 21.8774 56.9919 21.0355C55.7987 20.187 55.0994 19.0336 54.8939 17.5753L59.0601 17.3565C59.186 17.973 59.491 18.4437 59.9749 18.7685C60.4588 19.0866 61.0786 19.2457 61.8342 19.2457C62.5767 19.2457 63.1733 19.1032 63.624 18.8182C64.0814 18.5265 64.3134 18.152 64.32 17.6946C64.3134 17.3101 64.151 16.9953 63.8328 16.75C63.5146 16.4981 63.0241 16.3059 62.3612 16.1733L59.7163 15.6463C58.2249 15.348 57.1145 14.831 56.3854 14.0952C55.6628 13.3594 55.3016 12.4214 55.3016 11.2812C55.3016 10.3002 55.5667 9.45502 56.097 8.74574C56.634 8.03646 57.3863 7.48958 58.3541 7.10511C59.3286 6.72064 60.4687 6.52841 61.7746 6.52841C63.7036 6.52841 65.2215 6.93608 66.3286 7.75142C67.4422 8.56676 68.0918 9.67708 68.2774 11.0824ZM78.0163 6.72727V9.90909H68.8188V6.72727H78.0163ZM70.9069 3.06818H75.1427V17.3068C75.1427 17.6979 75.2023 18.0028 75.3217 18.2216C75.441 18.4337 75.6067 18.5829 75.8188 18.669C76.0376 18.7552 76.2895 18.7983 76.5745 18.7983C76.7734 18.7983 76.9722 18.7817 77.1711 18.7486C77.37 18.7088 77.5224 18.679 77.6285 18.6591L78.2947 21.8111C78.0826 21.8774 77.7843 21.9536 77.3998 22.0398C77.0153 22.1326 76.548 22.1889 75.9978 22.2088C74.977 22.2486 74.0821 22.1127 73.3131 21.8011C72.5508 21.4896 71.9576 21.0057 71.5333 20.3494C71.1091 19.6932 70.9003 18.8646 70.9069 17.8636V3.06818ZM86.1717 22.2983C84.6006 22.2983 83.2484 21.9801 82.1148 21.3438C80.988 20.7008 80.1196 19.7926 79.5097 18.6193C78.8999 17.4394 78.595 16.044 78.595 14.4332C78.595 12.8622 78.8999 11.4834 79.5097 10.2969C80.1196 9.11032 80.978 8.18561 82.085 7.52273C83.1987 6.85985 84.5045 6.52841 86.0026 6.52841C87.0102 6.52841 87.9482 6.69081 88.8165 7.01562C89.6915 7.33381 90.4539 7.81439 91.1035 8.45739C91.7597 9.10038 92.2701 9.90909 92.6347 10.8835C92.9993 11.8513 93.1816 12.9848 93.1816 14.2841V15.4474H80.2853V12.8224H89.1944C89.1944 12.2126 89.0618 11.6723 88.7967 11.2017C88.5315 10.7311 88.1636 10.3632 87.693 10.098C87.229 9.82623 86.6887 9.69034 86.0722 9.69034C85.4292 9.69034 84.8592 9.83949 84.362 10.1378C83.8715 10.4295 83.487 10.8239 83.2086 11.321C82.9302 11.8116 82.7877 12.3584 82.781 12.9616V15.4574C82.781 16.2131 82.9202 16.866 83.1987 17.4162C83.4837 17.9664 83.8847 18.3906 84.4018 18.6889C84.9188 18.9872 85.532 19.1364 86.2413 19.1364C86.7119 19.1364 87.1428 19.0701 87.5339 18.9375C87.925 18.8049 88.2597 18.6061 88.5381 18.3409C88.8165 18.0758 89.0287 17.7509 89.1745 17.3665L93.0921 17.625C92.8933 18.5663 92.4856 19.3883 91.8691 20.0909C91.2593 20.7869 90.4704 21.3305 89.5026 21.7216C88.5415 22.1061 87.4311 22.2983 86.1717 22.2983ZM107.253 11.0824L103.375 11.321C103.309 10.9896 103.167 10.6913 102.948 10.4261C102.729 10.1544 102.441 9.93892 102.083 9.77983C101.731 9.61411 101.31 9.53125 100.82 9.53125C100.164 9.53125 99.6102 9.67045 99.1594 9.94886C98.7087 10.2206 98.4833 10.5852 98.4833 11.0426C98.4833 11.4072 98.6291 11.7154 98.9208 11.9673C99.2125 12.2192 99.713 12.4214 100.422 12.5739L103.186 13.1307C104.671 13.4356 105.778 13.9261 106.507 14.6023C107.237 15.2784 107.601 16.1667 107.601 17.267C107.601 18.268 107.306 19.1463 106.716 19.902C106.133 20.6577 105.331 21.2476 104.31 21.6719C103.296 22.0895 102.126 22.2983 100.8 22.2983C98.7783 22.2983 97.1675 21.8774 95.9677 21.0355C94.7745 20.187 94.0752 19.0336 93.8697 17.5753L98.0359 17.3565C98.1618 17.973 98.4667 18.4437 98.9506 18.7685C99.4345 19.0866 100.054 19.2457 100.81 19.2457C101.552 19.2457 102.149 19.1032 102.6 18.8182C103.057 18.5265 103.289 18.152 103.296 17.6946C103.289 17.3101 103.127 16.9953 102.809 16.75C102.49 16.4981 102 16.3059 101.337 16.1733L98.6921 15.6463C97.2006 15.348 96.0903 14.831 95.3612 14.0952C94.6386 13.3594 94.2773 12.4214 94.2773 11.2812C94.2773 10.3002 94.5425 9.45502 95.0728 8.74574C95.6097 8.03646 96.3621 7.48958 97.3299 7.10511C98.3043 6.72064 99.4445 6.52841 100.75 6.52841C102.679 6.52841 104.197 6.93608 105.304 7.75142C106.418 8.56676 107.068 9.67708 107.253 11.0824ZM108.868 22V6.72727H113.104V22H108.868ZM110.996 4.75852C110.367 4.75852 109.826 4.54972 109.376 4.1321C108.931 3.70786 108.709 3.20076 108.709 2.61079C108.709 2.02746 108.931 1.52699 109.376 1.10938C109.826 0.685132 110.367 0.47301 110.996 0.47301C111.626 0.47301 112.163 0.685132 112.607 1.10938C113.058 1.52699 113.283 2.02746 113.283 2.61079C113.283 3.20076 113.058 3.70786 112.607 4.1321C112.163 4.54972 111.626 4.75852 110.996 4.75852ZM119.452 22.2884C118.478 22.2884 117.61 22.1193 116.847 21.7812C116.085 21.4366 115.482 20.9295 115.038 20.2599C114.6 19.5838 114.381 18.742 114.381 17.7344C114.381 16.8859 114.537 16.1733 114.849 15.5966C115.16 15.0199 115.585 14.5559 116.122 14.2045C116.658 13.8532 117.268 13.5881 117.951 13.4091C118.64 13.2301 119.363 13.1042 120.119 13.0312C121.007 12.9384 121.723 12.8523 122.266 12.7727C122.81 12.6866 123.204 12.5606 123.45 12.3949C123.695 12.2292 123.818 11.9839 123.818 11.6591V11.5994C123.818 10.9697 123.619 10.4825 123.221 10.1378C122.83 9.79309 122.273 9.62074 121.551 9.62074C120.788 9.62074 120.182 9.78977 119.731 10.1278C119.28 10.4593 118.982 10.8769 118.836 11.3807L114.918 11.0625C115.117 10.1345 115.508 9.33239 116.092 8.65625C116.675 7.97348 117.427 7.44981 118.349 7.08523C119.277 6.71401 120.351 6.52841 121.57 6.52841C122.419 6.52841 123.231 6.62784 124.006 6.8267C124.789 7.02557 125.481 7.33381 126.085 7.75142C126.694 8.16903 127.175 8.70597 127.526 9.36222C127.878 10.0118 128.053 10.7907 128.053 11.6989V22H124.036V19.8821H123.917C123.672 20.3594 123.344 20.7803 122.933 21.1449C122.522 21.5028 122.028 21.7846 121.451 21.9901C120.874 22.1889 120.208 22.2884 119.452 22.2884ZM120.666 19.3651C121.289 19.3651 121.839 19.2424 122.316 18.9972C122.793 18.7453 123.168 18.4072 123.44 17.983C123.711 17.5587 123.847 17.0781 123.847 16.5412V14.9205C123.715 15.0066 123.533 15.0862 123.301 15.1591C123.075 15.2254 122.82 15.2884 122.535 15.348C122.25 15.401 121.965 15.4508 121.68 15.4972C121.395 15.5369 121.136 15.5734 120.904 15.6065C120.407 15.6795 119.973 15.7955 119.602 15.9545C119.23 16.1136 118.942 16.3291 118.737 16.6009C118.531 16.866 118.428 17.1974 118.428 17.5952C118.428 18.1719 118.637 18.6127 119.055 18.9176C119.479 19.2159 120.016 19.3651 120.666 19.3651Z" fill="#202B61"/>
</svg>
